
		<svg xmlns="http://www.w3.org/2000/svg" xmlns:xlink="http://www.w3.org/1999/xlink" version="1.1" width="3155.844155844156" height="857.1428571428571">
			<rect fill="#ffffff" width="3155.844155844156" height="857.1428571428571"/>
			<g transform="scale(7.792207792207792) translate(10, 10)">
				<defs id="SvgjsDefs1780"></defs><g id="SvgjsG1781" featureKey="root" fill="#ffffff"></g><g id="SvgjsG1782" featureKey="symbol1" fill="#a0021e" transform="matrix(0.7777744811397928,0,0,0.7777744811397928,291.11142243736083,6.111127594301037)"><path xmlns="http://www.w3.org/2000/svg" d="M92.5,5c-22.131,0-42.6,9.48-56.944,25H7.5c-1.011,0-1.923,0.609-2.31,1.543c-0.387,0.934-0.173,2.009,0.542,2.724   l16.211,16.211c-1.676,3.69-3.084,7.54-4.178,11.54c-0.237,0.866,0.009,1.792,0.644,2.427L35.555,81.59   c0.475,0.476,1.113,0.732,1.768,0.732c0.22,0,0.441-0.029,0.659-0.088c4-1.094,7.85-2.502,11.54-4.178l16.211,16.211   C66.21,94.746,66.85,95,67.5,95c0.322,0,0.647-0.062,0.956-0.19C69.391,94.423,70,93.511,70,92.5V64.444   C85.52,50.1,95,29.631,95,7.5C95,6.119,93.881,5,92.5,5z M38.052,77.017L22.983,61.948c6.097-20.665,20.98-37.067,39.861-45.568   L83.62,37.156C75.119,56.036,58.717,70.92,38.052,77.017z M89.956,10.044c-0.27,7.674-1.758,15.107-4.291,22.085L67.871,14.336   C74.849,11.803,82.282,10.314,89.956,10.044z M13.536,35h17.779c-2.62,3.365-4.971,6.959-7.021,10.757L13.536,35z M65,86.464   L54.243,75.707c3.798-2.05,7.392-4.401,10.757-7.021V86.464z"></path><path xmlns="http://www.w3.org/2000/svg" d="M7.5,95c0.64,0,1.28-0.244,1.768-0.732l10-10c0.977-0.976,0.977-2.559,0-3.535c-0.976-0.977-2.56-0.977-3.535,0l-10,10   c-0.977,0.976-0.977,2.559,0,3.535C6.22,94.756,6.86,95,7.5,95z"></path><path xmlns="http://www.w3.org/2000/svg" d="M18.232,94.268C18.72,94.756,19.36,95,20,95s1.28-0.244,1.768-0.732l7.5-7.5c0.977-0.976,0.977-2.559,0-3.535   c-0.976-0.977-2.56-0.977-3.535,0l-7.5,7.5C17.256,91.708,17.256,93.292,18.232,94.268z"></path><path xmlns="http://www.w3.org/2000/svg" d="M7.5,82.5c0.64,0,1.28-0.244,1.768-0.732l7.5-7.5c0.977-0.976,0.977-2.559,0-3.535c-0.976-0.977-2.56-0.977-3.535,0   l-7.5,7.5c-0.977,0.976-0.977,2.559,0,3.535C6.22,82.256,6.86,82.5,7.5,82.5z"></path><path xmlns="http://www.w3.org/2000/svg" d="M55,32.5c-6.893,0-12.5,5.607-12.5,12.5S48.107,57.5,55,57.5S67.5,51.893,67.5,45S61.893,32.5,55,32.5z M55,52.5   c-4.136,0-7.5-3.364-7.5-7.5s3.364-7.5,7.5-7.5s7.5,3.364,7.5,7.5S59.136,52.5,55,52.5z"></path></g><g id="SvgjsG1783" featureKey="text1" fill="#a0021e" transform="matrix(3.2153187513958357,0,0,3.2153187513958357,-2.45162933961189,-18.189257699008486)"><path d="M12.661 21.4578 c0.16949 0.13559 0.16933 0.30508 0.016784 0.45763 c-1.2542 1.3729 -3.0339 2.2032 -5.0678 2.2032 c-3.7288 0 -6.8475 -2.9998 -6.8475 -6.8642 c0 -3.8475 3.1186 -6.9322 6.8475 -6.9322 c2.0508 0 3.8475 0.84746 5.1186 2.2373 c0.15254 0.15254 0.13559 0.32203 -0.016949 0.45763 l-1.4068 1.1356 c-0.16966 0.13559 -0.32203 0.11864 -0.45763 -0.033898 c-0.72881 -0.76271 -1.8644 -1.4575 -3.2203 -1.4575 c-2.4915 0 -4.4405 2.1524 -4.4405 4.5931 c0 2.4746 1.949 4.5254 4.4405 4.5254 c1.339 0 2.4576 -0.66102 3.1695 -1.4068 c0.15254 -0.15254 0.30508 -0.16949 0.47458 -0.050847 z M18.626969491525422 24.11864 c2.3729 0 4.339 -1.8642 4.339 -4.3049 c0 -2.4746 -1.9661 -4.322 -4.339 -4.322 s-4.339 1.8475 -4.339 4.322 c0 2.4407 1.9661 4.3049 4.339 4.3049 z M18.626969491525422 21.9493 c-1.2034 0 -2.0847 -0.98305 -2.0847 -2.1186 c0 -1.1695 0.88136 -2.1525 2.0847 -2.1525 s2.0847 0.98305 2.0847 2.1525 c0 1.1356 -0.88136 2.1186 -2.0847 2.1186 z M38.88106779661017 23.57644 c0.050847 0.22034 -0.033898 0.42373 -0.20339 0.42373 l-1.4237 0 c-0.52542 0 -0.83051 -0.37288 -0.83051 -0.84746 l0 -4.2202 c0 -0.94915 -0.74576 -1.339 -1.5424 -1.339 c-0.74576 0 -1.3898 0.42356 -1.9661 0.98288 l0 0.18644 l0 3.7119 c0.016949 0.47458 0.067797 0.79661 0.13559 1.1017 c0.033898 0.22034 -0.033898 0.42356 -0.20356 0.42356 l-1.4236 0 c-0.54237 0 -0.84746 -0.37288 -0.84746 -0.84746 l0 -4.2202 c0 -0.94915 -0.72881 -1.339 -1.5254 -1.339 c-0.74559 0 -1.3897 0.40661 -1.9659 0.98288 l0 5.1017 c0 0.16949 -0.15254 0.32186 -0.32203 0.32186 l-1.712 0 c-0.16949 0 -0.30508 -0.15238 -0.30508 -0.32186 l0 -7.7456 c0 -0.16949 0.13559 -0.32203 0.30508 -0.32203 l1.1697 0 c0.42373 0 0.71169 0.35593 0.81339 0.71186 c0.61017 -0.44068 1.3898 -0.81356 2.3559 -0.81356 c1.1017 0 2.2203 0.45763 2.8983 1.322 l0 -0.033898 c0.64407 -0.57627 1.6102 -1.2881 2.9492 -1.2881 c1.7288 0 3.5085 1.1525 3.5085 3.2542 l0 3.7119 c0.016949 0.47458 0.067797 0.79661 0.13559 1.1017 z M45.37266271186441 15.5256 c1.9661 0 3.8641 1.6273 3.8641 4.1527 c0 2.4915 -1.5763 4.4234 -3.9492 4.4234 c-0.81339 0 -1.4575 -0.23695 -1.9829 -0.55915 l0 4.4912 c0 0.59322 -0.69492 0.94915 -1.1356 0.94915 l-0.88136 0 c-0.16933 0 -0.32186 -0.15238 -0.32186 -0.32203 l0 -11.407 c0 -0.61017 -0.11864 -0.89831 -0.18644 -1.2203 c-0.050847 -0.22034 0.033732 -0.42373 0.22034 -0.42373 l1.4746 0 c0.37288 0 0.66102 0.18661 0.77966 0.49169 c0.54237 -0.32203 1.2203 -0.57627 2.1186 -0.57627 z M44.914762711864405 21.9495 c1.1186 0 2.0168 -0.81356 2.0168 -2.2712 s-1.0678 -1.9831 -1.8983 -1.9831 c-0.62712 0 -1.2034 0.20339 -1.7288 0.52542 l0 3.339 c0.44085 0.22034 0.96627 0.38983 1.6103 0.38983 z M55.101545762711865 24.11864 c2.3729 0 4.339 -1.8642 4.339 -4.3049 c0 -2.4746 -1.9661 -4.322 -4.339 -4.322 s-4.339 1.8475 -4.339 4.322 c0 2.4407 1.9661 4.3049 4.339 4.3049 z M55.101545762711865 21.9493 c-1.2034 0 -2.0847 -0.98305 -2.0847 -2.1186 c0 -1.1695 0.88136 -2.1525 2.0847 -2.1525 s2.0847 0.98305 2.0847 2.1525 c0 1.1356 -0.88136 2.1186 -2.0847 2.1186 z M68.9661440677966 15.6102 c0.18644 0 0.30525 0.15304 0.30525 0.32253 l0 7.7456 c0 0.16949 -0.11864 0.32186 -0.30508 0.32186 l-1.322 0 c-0.28814 0 -0.55932 -0.35576 -0.66102 -0.69475 c-0.59322 0.42373 -1.3729 0.79627 -2.3559 0.79627 c-1.7288 0 -3.5254 -1.1524 -3.5254 -3.2541 l0 -3.7119 c0 -0.47441 -0.050847 -0.77966 -0.11864 -1.1017 c-0.050847 -0.22034 0.033898 -0.42373 0.20339 -0.42373 l1.4237 0 c0.52542 0 0.83051 0.37288 0.83051 0.84746 l0 4.2202 c0 0.94915 0.74559 1.339 1.5422 1.339 c0.72881 0 1.3898 -0.40678 1.9661 -0.98305 l0 -5.1017 c0 -0.16949 0.13559 -0.32203 0.32203 -0.32203 l1.6949 0 z M79.52538983050847 23.57644 c0.033898 0.22034 -0.033732 0.42356 -0.20322 0.42356 l-1.4237 0 c-0.54237 0 -0.84746 -0.37288 -0.84746 -0.84746 l0 -4.1864 c0 -0.94915 -0.72881 -1.3898 -1.5254 -1.3898 c-0.74576 0 -1.3898 0.33898 -1.9661 0.86441 l0 5.2373 c0 0.16949 -0.15254 0.32186 -0.32203 0.32186 l-1.7119 0 c-0.16949 0 -0.30508 -0.15238 -0.30508 -0.32186 l0 -7.7456 c0 -0.16949 0.13559 -0.32203 0.30508 -0.32203 l1.1695 0 c0.42373 0 0.71169 0.35593 0.81356 0.69492 c0.61017 -0.42373 1.3898 -0.81356 2.3559 -0.81356 c1.7456 0 3.5254 1.1697 3.5254 3.2542 l0 3.7288 c0.016784 0.47458 0.067631 0.79661 0.13543 1.1017 z M88.61003050847458 10.441 c0.49153 0 0.83051 0.32186 0.83051 0.77949 l0 12.458 c0 0.16949 -0.15254 0.32186 -0.32203 0.32186 l-0.88136 0 c-0.32203 0 -0.79661 -0.20322 -1.0169 -0.5422 c-0.54237 0.37288 -1.2542 0.66085 -2.1356 0.66085 c-2.3898 0 -4.0169 -1.932 -4.0169 -4.4236 c0 -2.5254 1.9492 -4.1525 3.9153 -4.1525 c0.89831 0 1.5763 0.25441 2.1186 0.57644 l0 -4.0339 c0 -0.61017 -0.11864 -0.89831 -0.18644 -1.2203 c-0.050847 -0.22034 0.033898 -0.42373 0.20339 -0.42373 l1.4915 0 z M83.37273050847458 19.6949 c0 1.4576 0.94932 2.2712 2.0847 2.2712 c0.66102 0 1.2032 -0.18644 1.6441 -0.40678 l0 -3.3051 c-0.54237 -0.32203 -1.1356 -0.54237 -1.7797 -0.54237 c-0.83051 0 -1.9492 0.52542 -1.9492 1.9831 z"></path></g>
			</g>
		</svg>
	